<svg width="425" height="467" viewBox="0 0 425 467" fill="none" xmlns="http://www.w3.org/2000/svg">
<g filter="url(#filter0_d_778_16566)">
<path d="M272.968 227.627C272.968 311.801 262.783 393.307 153.204 393.307C95.9831 393.307 26.4162 329.732 26.4162 245.557C26.4162 161.383 -27.9951 12.457 29.226 12.457C86.447 12.457 272.968 143.452 272.968 227.627Z" fill="#009F7F"/>
<path d="M330.464 244.627C330.464 311.74 322.172 376.724 232.964 376.724C186.38 376.724 129.745 326.036 129.745 258.924C129.745 191.811 85.449 73.0732 132.033 73.0732C178.617 73.0732 330.464 177.515 330.464 244.627Z" fill="#009F7F"/>
<path d="M374.914 339.414C292.875 404.234 208.268 460.458 152.662 390.081C123.625 353.331 150.285 259.694 232.324 194.874C314.363 130.053 431.899 -19.5762 460.936 17.1742C489.973 53.9246 456.953 274.593 374.914 339.414Z" fill="#63BB82"/>
</g>
<defs>
<filter id="filter0_d_778_16566" x="0.757533" y="11.4468" width="472.83" height="432.919" filterUnits="userSpaceOnUse" color-interpolation-filters="sRGB">
<feFlood flood-opacity="0" result="BackgroundImageFix"/>
<feColorMatrix in="SourceAlpha" type="matrix" values="0 0 0 0 0 0 0 0 0 0 0 0 0 0 0 0 0 0 127 0" result="hardAlpha"/>
<feOffset dy="19.4428"/>
<feGaussianBlur stdDeviation="1.14369"/>
<feComposite in2="hardAlpha" operator="out"/>
<feColorMatrix type="matrix" values="0 0 0 0 0 0 0 0 0 0 0 0 0 0 0 0 0 0 0.15 0"/>
<feBlend mode="normal" in2="BackgroundImageFix" result="effect1_dropShadow_778_16566"/>
<feBlend mode="normal" in="SourceGraphic" in2="effect1_dropShadow_778_16566" result="shape"/>
</filter>
</defs>
</svg>
