<svg width="31" height="30" viewBox="0 0 31 30" fill="none" xmlns="http://www.w3.org/2000/svg">
<path fill-rule="evenodd" clip-rule="evenodd" d="M15.7051 0C7.42508 0 0.705078 6.72 0.705078 15C0.705078 23.28 7.42508 30 15.7051 30C23.9851 30 30.7051 23.28 30.7051 15C30.7051 6.72 23.9851 0 15.7051 0ZM15.705 4.5C18.195 4.5 20.205 6.51 20.205 9C20.205 11.49 18.195 13.5 15.705 13.5C13.215 13.5 11.205 11.49 11.205 9C11.205 6.51 13.215 4.5 15.705 4.5ZM6.70502 20.97C8.64002 23.88 11.955 25.8 15.705 25.8C19.455 25.8 22.77 23.88 24.705 20.97C24.66 17.985 18.69 16.35 15.705 16.35C12.705 16.35 6.75002 17.985 6.70502 20.97Z" fill="#111111"/>
</svg>
