<svg width="27" height="26" viewBox="0 0 27 26" fill="none" xmlns="http://www.w3.org/2000/svg">
<path d="M1.44968 18.5714H16.6748C16.7726 18.5715 16.8694 18.5523 16.9598 18.5149C17.0502 18.4775 17.1323 18.4227 17.2014 18.3535C17.2706 18.2844 17.3254 18.2022 17.3628 18.1119C17.4002 18.0215 17.4194 17.9246 17.4194 17.8268V15.6017C17.4194 15.5039 17.4002 15.4071 17.3628 15.3167C17.3254 15.2263 17.2706 15.1442 17.2014 15.0751C17.1323 15.0059 17.0502 14.9511 16.9598 14.9137C16.8694 14.8763 16.7726 14.8571 16.6748 14.8571H1.44968C1.35187 14.8571 1.25501 14.8763 1.16464 14.9137C1.07427 14.9511 0.992153 15.0059 0.922996 15.0751C0.853838 15.1442 0.798995 15.2263 0.761602 15.3167C0.72421 15.4071 0.705002 15.5039 0.705078 15.6017V17.8268C0.705002 17.9246 0.72421 18.0215 0.761602 18.1119C0.798995 18.2022 0.853838 18.2844 0.922996 18.3535C0.992153 18.4227 1.07427 18.4775 1.16464 18.5149C1.25501 18.5523 1.35187 18.5715 1.44968 18.5714ZM1.44968 3.71429H16.6748C16.7726 3.71436 16.8694 3.69515 16.9598 3.65776C17.0502 3.62037 17.1323 3.56553 17.2014 3.49637C17.2706 3.42721 17.3254 3.3451 17.3628 3.25472C17.4002 3.16435 17.4194 3.06749 17.4194 2.96969V0.744599C17.4194 0.646795 17.4002 0.549936 17.3628 0.459563C17.3254 0.36919 17.2706 0.287075 17.2014 0.217918C17.1323 0.14876 17.0502 0.0939164 16.9598 0.0565239C16.8694 0.0191313 16.7726 -7.6093e-05 16.6748 2.26547e-07H1.44968C1.35187 -7.6093e-05 1.25501 0.0191313 1.16464 0.0565239C1.07427 0.0939164 0.992153 0.14876 0.922996 0.217918C0.853838 0.287075 0.798995 0.36919 0.761602 0.459563C0.72421 0.549936 0.705002 0.646795 0.705078 0.744599V2.96969C0.705002 3.06749 0.72421 3.16435 0.761602 3.25472C0.798995 3.3451 0.853838 3.42721 0.922996 3.49637C0.992153 3.56553 1.07427 3.62037 1.16464 3.65776C1.25501 3.69515 1.35187 3.71436 1.44968 3.71429ZM25.7765 7.42857H1.63365C1.38738 7.42857 1.15119 7.5264 0.977051 7.70054C0.80291 7.87468 0.705078 8.11087 0.705078 8.35714V10.2143C0.705078 10.4606 0.80291 10.6967 0.977051 10.8709C1.15119 11.045 1.38738 11.1429 1.63365 11.1429H25.7765C26.0228 11.1429 26.259 11.045 26.4331 10.8709C26.6072 10.6967 26.7051 10.4606 26.7051 10.2143V8.35714C26.7051 8.11087 26.6072 7.87468 26.4331 7.70054C26.259 7.5264 26.0228 7.42857 25.7765 7.42857ZM25.7765 22.2857H1.63365C1.38738 22.2857 1.15119 22.3835 0.977051 22.5577C0.80291 22.7318 0.705078 22.968 0.705078 23.2143V25.0714C0.705078 25.3177 0.80291 25.5539 0.977051 25.728C1.15119 25.9022 1.38738 26 1.63365 26H25.7765C26.0228 26 26.259 25.9022 26.4331 25.728C26.6072 25.5539 26.7051 25.3177 26.7051 25.0714V23.2143C26.7051 22.968 26.6072 22.7318 26.4331 22.5577C26.259 22.3835 26.0228 22.2857 25.7765 22.2857Z" fill="#111111"/>
</svg>
